inDegrees=yes
name=wink_l_res.mot
DataType=double
version=3
OpenSimVersion=4.4-2022-07-23-0e9fedc
endheader
time	pelvis_tilt	pelvis_list	pelvis_rotation	pelvis_tx	pelvis_ty	pelvis_tz	hip_flexion_r	hip_adduction_r	hip_rotation_r	knee_angle_r	knee_angle_r_beta	ankle_angle_r	subtalar_angle_r	mtp_angle_r	hip_flexion_l	hip_adduction_l	hip_rotation_l	knee_angle_l	knee_angle_l_beta	ankle_angle_l	subtalar_angle_l	mtp_angle_l	lumbar_extension	lumbar_bending	lumbar_rotation	arm_flex_r	arm_add_r	arm_rot_r	elbow_flex_r	pro_sup_r	wrist_flex_r	wrist_dev_r	arm_flex_l	arm_add_l	arm_rot_l	elbow_flex_l	pro_sup_l	wrist_flex_l	wrist_dev_l
75	-0.9190325680642943	0.1763182496570803	88.83145335236155	0	0.9399999999999999	0	42.7588273269059	-10.15360407970996	0	58.74074914401508	1.025219477651104	-5.034747427269501	0	0	42.7588273269059	-10.15360407970996	0	58.74074914401508	1.025219477651104	-5.034747427269501	0	0	-0.8407212424676023	-2.717348274775887	0.7104475543313963	0	-11.2202680677131	0	75.55409267943934	45.77794292659112	0	0	68.73591829472559	-33.13394606857864	24.6161311946931	0.008134080392511336	45.77794292659112	0	0
76	-0.9319658713178357	0.1886961513210083	88.81227237231441	0	0.9399999999999999	0	42.75933436342059	-10.153482559202	0	58.7409723697562	1.025223373675262	-5.03471155726703	0	0	42.75933436342059	-10.153482559202	0	58.7409723697562	1.025223373675262	-5.03471155726703	0	0	-0.8656435056415669	-2.759581034332956	0.7447133727626404	0	-11.22070557296415	0	75.55396746777413	45.77745609791069	0	0	68.27599802816027	-33.89530189984904	24.48249647923278	0.007629327615199498	45.77745609791069	0	0
77	-0.9288479229295573	0.1766679970089316	88.84020469708636	0	0.9399999999999999	0	42.81893437245957	-10.14196044445256	0	58.76854769866105	1.025704653956972	-5.031536399304759	0	0	42.81893437245957	-10.14196044445256	0	58.76854769866105	1.025704653956972	-5.031536399304759	0	0	-0.8478882286147471	-2.725689849585401	0.7016261720402137	0	-11.27539629721298	0	75.5392457412664	45.72877499064681	0	0	66.90170501707426	-35.3899605260713	21.35210247000917	0.007018657681483977	45.72877499064681	0	0
78	-0.9228961601898538	0.1856392838082526	88.83433905755717	0	0.9399999999999999	0	42.82802123236812	-10.14047822370191	0	58.7735534503054	1.025792020804703	-5.031137210820129	0	0	42.82802123236812	-10.14047822370191	0	58.7735534503054	1.025792020804703	-5.031137210820129	0	0	-0.8500354283745952	-2.722933641050231	0.7120554525036782	0	-11.28470127021705	0	75.5370007296421	45.72235519956213	0	0	63.56654162305993	-33.79466444227384	15.20110888486846	0.006200103334801305	45.72235519956213	0	0
79	-0.9201990057663718	0.1843886685316404	88.83657135180079	0	0.9399999999999999	0	42.84189159193853	-10.13825450356567	0	58.78126232615764	1.025926566069952	-5.030541021571618	0	0	42.84189159193853	-10.13825450356567	0	58.78126232615764	1.025926566069952	-5.030541021571618	0	0	-0.8512658237732752	-2.7201045137061	0.7144001736950636	0	-11.2990017758214	0	75.53357383595811	45.71268804312448	0	0	59.94168656026049	-30.13025675914625	7.546502960776232	0.005940091265529556	45.71268804312448	0	0
80	-0.917484458270124	0.191494863424313	88.82735145168435	0	0.9399999999999999	0	42.85514182950332	-10.1361515184586	0	58.78863068086641	1.026055168120075	-5.029979176803105	0	0	42.85514182950332	-10.1361515184586	0	58.78863068086641	1.026055168120075	-5.029979176803105	0	0	-0.8612555800811662	-2.717806057207434	0.7281251667294544	0	-11.31270099682249	0	75.53030012766635	45.70352203424219	0	0	55.96816417957928	-24.9133846243307	-0.2169340834169234	0.00606334876631999	45.70352203424219	0	0
81	-0.9147261018552014	0.1857206163834822	88.82733433411653	0	0.9399999999999999	0	42.86753643128664	-10.13420485726814	0	58.79553069805443	1.02617559613845	-5.029460914035199	0	0	42.86753643128664	-10.13420485726814	0	58.79553069805443	1.02617559613845	-5.029460914035199	0	0	-0.8648479707335771	-2.713831160761527	0.7232964590928651	0	-11.32555485996071	0	75.52723779385963	45.69501505528823	0	0	53.0601088946526	-19.65547516943373	-7.559366375509478	0.006135233330560908	45.69501505528823	0	0
82	-0.9262783352107017	0.1951626076237601	88.82575400817302	0	0.9399999999999999	0	42.87926556562836	-10.13237680771293	0	58.80205987954358	1.026289551852896	-5.028975542350341	0	0	42.87926556562836	-10.13237680771293	0	58.80205987954358	1.026289551852896	-5.028975542350341	0	0	-0.8695255802185363	-2.738510105952813	0.720765182473611	0	-11.33774393610242	0	75.5243398605225	45.68701052573712	0	0	51.05162962275802	-14.31593796438944	-14.42398804860197	0.006243946859264105	45.68701052573712	0	0
83	-0.9211853453433616	0.1841445461823625	88.82790689158855	0	0.9399999999999999	0	42.8905720555292	-10.13062853781856	0	58.8083561397998	1.026399442324929	-5.028512613954299	0	0	42.8905720555292	-10.13062853781856	0	58.8083561397998	1.026399442324929	-5.028512613954299	0	0	-0.8560707245399971	-2.725884384437418	0.7139139492860743	0	-11.34952016270158	0	75.52154633365204	45.67933987611261	0	0	48.9762687323603	-8.724152314398447	-20.67685932450504	0.006489978258897538	45.67933987611261	0	0
84	-0.9269514004368918	0.1740921381866262	88.82758766931565	0	0.9399999999999999	0	42.89762427351501	-10.12954242531625	0	58.81225962009946	1.026467570908445	-5.028225779948151	0	0	42.89762427351501	-10.12954242531625	0	58.81225962009946	1.026467570908445	-5.028225779948151	0	0	-0.8434913911636733	-2.733882447186428	0.7090028129819607	0	-11.35685996590633	0	75.51980392462443	45.67456657802644	0	0	47.35848879419739	-3.745363654478239	-25.80379552062514	0.006207460071141859	45.67456657802644	0	0
85	-0.9264955861207862	0.1816015431493569	88.83244149510102	0	0.9399999999999999	0	42.90448068405529	-10.12846864820714	0	58.81601459379285	1.02653310756272	-5.027941035560837	0	0	42.90448068405529	-10.12846864820714	0	58.81601459379285	1.02653310756272	-5.027941035560837	0	0	-0.8434247107999827	-2.733525591968364	0.7103826676966651	0	-11.36394835082275	0	75.51810992221205	45.66986400808122	0	0	46.68631877244692	-0.1320296411801986	-31.5384308981822	0.005995264505180441	45.66986400808122	0	0
86	-0.9266204662796185	0.1769256706249727	88.83021281558507	0	0.9399999999999999	0	42.91095590419535	-10.12747184370236	0	58.81958484186109	1.026595420146624	-5.027677993743938	0	0	42.91095590419535	-10.12747184370236	0	58.81958484186109	1.026595420146624	-5.027677993743938	0	0	-0.8335357967262988	-2.736590652695852	0.7139572601908485	0	-11.37068339709965	0	75.51651007521107	45.66548143433463	0	0	47.28977572481681	4.271531068739288	-35.99193483351331	0.006092815601278691	45.66548143433463	0	0
87	-0.3764491569152589	0.5459311861728183	89.73803223355475	0	0.9399999999999999	0	42.91776729968825	-10.12642121282567	0	58.8233266269444	1.02666072661623	-5.027400744438512	0	0	42.91776729968825	-10.12642121282567	0	58.8233266269444	1.02666072661623	-5.027400744438512	0	0	-1.259112242574703	-2.168523413872403	-0.1802530822439046	0	-11.37775827119317	0	75.51482717386045	45.66086308647898	0	0	49.04322826685068	7.916390908363899	-40.42128337173386	0.006512404897368791	45.66086308647898	0	0
88	-0.3834231475980887	0.5552041632919251	89.72133190198488	0	0.9399999999999999	0	42.95093150620008	-10.12047985082238	0	58.83860131496809	1.026927320214458	-5.025816538276658	0	0	42.95093150620008	-10.12047985082238	0	58.83860131496809	1.026927320214458	-5.025816538276658	0	0	-1.259793177393278	-2.175842686582223	-0.1778559652861486	0	-11.4086064634336	0	75.50663486742607	45.63518643158218	0	0	50.59036851862552	9.977944726915149	-42.66745942535766	0.00682217291174811	45.63518643158218	0	0
89	-0.9252256027965152	0.1840751212567316	88.82957086993872	0	0.9399999999999999	0	42.95157279250858	-10.12034873325112	0	58.83888748083971	1.026932314751125	-5.025779916799141	0	0	42.95157279250858	-10.12034873325112	0	58.83888748083971	1.026932314751125	-5.025779916799141	0	0	-0.8461296994018762	-2.73597679699794	0.7100846159019583	0	-11.40918347120292	0	75.5064764735136	45.63463913445444	0	0	50.34451818984392	9.280567698944212	-42.93833085392079	0.006766858332886183	45.63463913445444	0	0
90	-0.371486851697982	0.5342198773085055	89.72619647054438	0	0.9399999999999999	0	42.95232552311899	-10.12019465925789	0	58.83922283654829	1.026938167812405	-5.025736884315394	0	0	42.95232552311899	-10.12019465925789	0	58.83922283654829	1.026938167812405	-5.025736884315394	0	0	-0.8405252983332407	-1.193198707766394	0.9649450498571364	0	-11.4098600552519	0	75.50629055384078	45.63399606534643	0	0	50.45490839272377	10.61795375019064	-42.47949195390084	0.006933263021967296	45.63399606534643	0	0
